<svg xmlns="http://www.w3.org/2000/svg" viewBox="0 0 50 50" id="Figma--Streamline-Font-Awesome" height="50" width="50"><desc>Figma Streamline Icon: https://streamlinehq.com</desc><!--! Font Awesome Free 6.5.2 by @fontawesome - https://fontawesome.com License - https://fontawesome.com/license/free (Icons: CC BY 4.0, Fonts: SIL OFL 1.1, Code: MIT License) Copyright 2024 Fonticons, Inc.--><path d="M7.967044270833334 9.667630208333334c0 -5.063138020833334 4.1044921875 -9.167630208333334 9.167695312500001 -9.167630208333334h15.730520833333335c5.063177083333334 0 9.167695312500001 4.1044921875 9.167695312500001 9.167630208333334 0 3.206015625 -1.6457161458333334 6.0277343750000005 -4.1384895833333335 7.666263020833334 2.4927734375000004 1.6386328125 4.1384895833333335 4.460247395833334 4.1384895833333335 7.666302083333334 0 5.0631640625 -4.104518229166667 9.167682291666667 -9.167682291666667 9.167682291666667h-0.1990625c-2.3736328125000004 0 -4.536614583333334 -0.9020963541666667 -6.1647265625 -2.3821484375v8.447044270833334c0 5.130651041666667 -4.211796875000001 9.267226562500001 -9.317369791666668 9.267226562500001 -5.050533854166667 0 -9.2170703125 -4.091979166666667 -9.2170703125 -9.167695312500001 0 -3.205859375 1.6455729166666668 -6.027382812500001 4.1381250000000005 -7.666002604166667 -2.4925520833333334 -1.6386328125 -4.1381250000000005 -4.460247395833334 -4.1381250000000005 -7.666106770833334 0 -3.2060546875 1.6457161458333334 -6.027669270833333 4.1384375 -7.666302083333334 -2.492721354166667 -1.6385286458333335 -4.1384375 -4.460247395833334 -4.1384375 -7.666263020833334Zm15.531471354166667 9.167838541666669h-6.363776041666667c-3.4047135416666667 0 -6.164739583333334 2.760078125 -6.164739583333334 6.1647265625 0 3.3915234375000005 2.7387369791666667 6.1433723958333335 6.125299479166666 6.164622395833334 0.013111979166666668 -0.00010416666666666667 0.026223958333333335 -0.00010416666666666667 0.03944010416666667 -0.00010416666666666667h6.363776041666667v-12.329244791666667Zm3.00296875 6.1647265625c0 3.404635416666667 2.759986979166667 6.164713541666667 6.164713541666667 6.164713541666667h0.1990625c3.4047395833333334 0 6.1647265625 -2.760078125 6.1647265625 -6.164713541666667s-2.759986979166667 -6.164713541666667 -6.164713541666667 -6.164713541666667h-0.1990625c-3.4047395833333334 0 -6.1647265625 2.760078125 -6.1647265625 6.164713541666667Zm-9.366744791666667 9.167682291666667c-0.013216145833333335 0 -0.026328125 -0.00009114583333333334 -0.03944010416666667 -0.00009114583333333334 -3.3865625 0.021145833333333332 -6.125299479166666 2.772994791666667 -6.125299479166666 6.1645312500000005 0 3.3921875000000004 2.7968880208333338 6.164713541666667 6.214114583333334 6.164713541666667 3.4723046875000003 0 6.314401041666667 -2.8171223958333336 6.314401041666667 -6.264244791666667v-6.064908854166667h-6.363776041666667Zm0 -30.664921875c-3.4047135416666667 0 -6.164739583333334 2.760026041666667 -6.164739583333334 6.164674479166668 0 3.4047005208333334 2.760026041666667 6.1646875 6.164739583333334 6.1646875h6.363776041666667V3.5029557291666666h-6.363776041666667Zm9.366744791666667 12.329361979166666h6.363776041666667c3.4047395833333334 0 6.1647265625 -2.759986979166667 6.1647265625 -6.1646875 0 -3.4046484375 -2.759986979166667 -6.164674479166668 -6.164713541666667 -6.164674479166668h-6.3637890625v12.329348958333336Z" fill="#d3d3d3" stroke-width="0.1302"></path></svg>