<svg xmlns="http://www.w3.org/2000/svg" viewBox="0 0 20 20" id="Envelope--Streamline-Font-Awesome" height="20" width="20"><desc>Envelope Streamline Icon: https://streamlinehq.com</desc><!--! Font Awesome Free 6.5.2 by @fontawesome - https://fontawesome.com License - https://fontawesome.com/license/free (Icons: CC BY 4.0, Fonts: SIL OFL 1.1, Code: MIT License) Copyright 2024 Fonticons, Inc.--><path d="M1.875 2.5C0.83984375 2.5 0 3.33984375 0 4.375c0 0.58984375 0.27734375 1.14453125 0.75 1.5l8.5 6.375c0.4453125 0.33203125 1.0546875 0.33203125 1.5 0l8.5 -6.375c0.47265625 -0.35546875 0.75 -0.91015625 0.75 -1.5 0 -1.03515625 -0.83984375 -1.875 -1.875 -1.875H1.875zM0 6.875v8.125c0 1.37890625 1.12109375 2.5 2.5 2.5h15c1.37890625 0 2.5 -1.12109375 2.5 -2.5V6.875L11.5 13.25c-0.890625 0.66796875 -2.109375 0.66796875 -3 0L0 6.875z" fill="#d3d3d3" stroke-width="0.0391"></path></svg>