<svg xmlns="http://www.w3.org/2000/svg" viewBox="0 0 20 20" id="Instagram--Streamline-Font-Awesome" height="20" width="20"><desc>Instagram Streamline Icon: https://streamlinehq.com</desc><!--! Font Awesome Free 6.5.2 by @fontawesome - https://fontawesome.com License - https://fontawesome.com/license/free (Icons: CC BY 4.0, Fonts: SIL OFL 1.1, Code: MIT License) Copyright 2024 Fonticons, Inc.--><path d="M10.0021875 4.975928571428572c-2.780950892857143 0 -5.024071428571428 2.243125 -5.024071428571428 5.024071428571428s2.2431205357142856 5.024071428571428 5.024071428571428 5.024071428571428S15.026258928571428 12.78094642857143 15.026258928571428 10s-2.243125 -5.024071428571428 -5.024071428571428 -5.024071428571428Zm0 8.290375c-1.797125 0 -3.2663035714285713 -1.4648080357142859 -3.2663035714285713 -3.2663035714285713s1.4648080357142859 -3.2663035714285713 3.2663035714285713 -3.2663035714285713S13.268486607142856 8.198504464285715 13.268486607142856 10s-1.4691785714285714 3.2663035714285713 -3.266299107142857 3.2663035714285713Zm6.401424107142857 -8.495883928571429c0 0.6515089285714286 -0.5247053571428572 1.17184375 -1.17184375 1.17184375 -0.6515133928571428 0 -1.1718482142857143 -0.5247053571428572 -1.1718482142857143 -1.17184375s0.5247098214285715 -1.1718482142857143 1.1718482142857143 -1.1718482142857143 1.17184375 0.5247098214285715 1.17184375 1.1718482142857143Zm3.327522321428572 1.1893348214285715c-0.07433482142857144 -1.56975 -0.4328839285714286 -2.960223214285714 -1.5828705357142856 -4.105834821428571 -1.1456071428571428 -1.1456116071428573 -2.5360848214285716 -1.5041607142857143 -4.105830357142858 -1.5828660714285716 -1.6178482142857145 -0.09182142857142857 -6.467017857142857 -0.09182142857142857 -8.084866071428571 0 -1.565375 0.07433482142857144 -2.955848214285714 0.4328839285714286 -4.105834821428571 1.5784955357142858S0.3475714285714286 4.385633928571429 0.26886607142857144 5.955383928571429c-0.09182142857142857 1.61784375 -0.09182142857142857 6.467013392857143 0 8.084861607142857 0.07433482142857144 1.56975 0.4328839285714286 2.960223214285714 1.5828660714285716 4.105834821428571s2.5360848214285716 1.5041607142857143 4.105834821428571 1.5828660714285716c1.6178482142857145 0.09182142857142857 6.467017857142857 0.09182142857142857 8.084866071428571 0 1.5697455357142858 -0.07433482142857144 2.960223214285714 -0.4328839285714286 4.105830357142858 -1.5828660714285716 1.1456116071428573 -1.1456116071428573 1.5041607142857143 -2.5360848214285716 1.5828705357142856 -4.105834821428571 0.09182142857142857 -1.6178482142857145 0.09182142857142857 -6.462642857142858 0 -8.080491071428572Zm-2.0900848214285714 9.816397321428573c-0.3410625 0.8570223214285714 -1.0013169642857143 1.517276785714286 -1.8627098214285713 1.8627098214285713 -1.28990625 0.5115892857142857 -4.350700892857143 0.39353125 -5.776151785714285 0.39353125s-4.490620535714286 0.11368750000000001 -5.776151785714285 -0.39353125c-0.8570223214285714 -0.3410580357142857 -1.51728125 -1.0013169642857143 -1.8627142857142858 -1.8627098214285713 -0.5115892857142857 -1.28990625 -0.3935267857142857 -4.350696428571429 -0.3935267857142857 -5.776151785714285s-0.11368750000000001 -4.490620535714286 0.3935267857142857 -5.776151785714285c0.3410625 -0.8570223214285714 1.0013169642857143 -1.517276785714286 1.8627142857142858 -1.8627098214285713 1.2899017857142856 -0.5115892857142857 4.350696428571429 -0.39353125 5.776151785714285 -0.39353125s4.490616071428572 -0.11368750000000001 5.776151785714285 0.39353125c0.8570223214285714 0.3410580357142857 1.517276785714286 1.0013169642857143 1.8627098214285713 1.8627098214285713 0.5115892857142857 1.28990625 0.39353125 4.350696428571429 0.39353125 5.776151785714285s0.1180580357142857 4.490620535714286 -0.39353125 5.776151785714285Z" fill="#d3d3d3" stroke-width="0.0446"></path></svg>