<svg xmlns="http://www.w3.org/2000/svg" viewBox="0 0 55 55" id="User-Group--Streamline-Font-Awesome" height="55" width="55"><desc>User Group Streamline Icon: https://streamlinehq.com</desc><!--! Font Awesome Free 6.5.2 by @fontawesome - https://fontawesome.com License - https://fontawesome.com/license/free (Icons: CC BY 4.0, Fonts: SIL OFL 1.1, Code: MIT License) Copyright 2024 Fonticons, Inc.--><path d="M8.635 16.72c0 -8.2984515625 8.98333046875 -13.48497734375 16.169999999999998 -9.3357515625 3.33534609375 1.9256617187499998 5.39 5.484428125 5.39 9.3357515625 0 8.2984515625 -8.98333046875 13.48497734375 -16.169999999999998 9.3357515625 -3.33534609375 -1.9256617187499998 -5.39 -5.484428125 -5.39 -9.3357515625ZM0.55 46.558703125c0 -8.295546875 6.720656249999999 -15.016203125 15.016203125 -15.016203125h7.69759375c8.295546875 0 15.016203125 6.720656249999999 15.016203125 15.016203125 0 1.3811875 -1.120109375 2.501296875 -2.501296875 2.501296875H3.0512968750000002c-1.3811875 0 -2.501296875 -1.120109375 -2.501296875 -2.501296875Zm51.314484375000006 2.501296875H40.250718750000004c0.45478124999999997 -0.79165625 0.7242812500000001 -1.7096406249999998 0.7242812500000001 -2.695v-0.67375c0 -5.112078125 -2.282328125 -9.702 -5.87846875 -12.78440625 0.202125 -0.008421875 0.395828125 -0.01684375 0.597953125 -0.01684375h5.1710312499999995c7.5038906249999995 0 13.584484375 6.08059375 13.584484375 13.584484375 0 1.43171875 -1.1622187499999999 2.5855156249999998 -2.5855156249999998 2.5855156249999998ZM36.9325 27.5c-2.61078125 0 -4.96890625 -1.06115625 -6.678546875 -2.770796875 1.659109375 -2.24021875 2.636046875 -5.011015625000001 2.636046875 -8.009203124999999 0 -2.2570625 -0.55584375 -4.387796875 -1.541203125 -6.257453125 1.56646875 -1.145375 3.495078125 -1.827546875 5.583703125 -1.827546875 5.213140625 0 9.432500000000001 4.219359375 9.432500000000001 9.432500000000001S42.145640625 27.5 36.9325 27.5Z" fill="#fda700" stroke-width="0.0859"></path></svg>