<svg xmlns="http://www.w3.org/2000/svg" viewBox="0 0 20 20" id="Discord--Streamline-Font-Awesome" height="20" width="20"><desc>Discord Streamline Icon: https://streamlinehq.com</desc><!--! Font Awesome Free 6.5.2 by @fontawesome - https://fontawesome.com License - https://fontawesome.com/license/free (Icons: CC BY 4.0, Fonts: SIL OFL 1.1, Code: MIT License) Copyright 2024 Fonticons, Inc.--><path d="M16.817753125 3.794553125c-0.005446875 -0.01055625 -0.014475 -0.018828125 -0.025465625 -0.023334375 -1.270778125 -0.583046875 -2.611815625 -0.99880625 -3.989546875 -1.236871875 -0.025675 -0.004771875 -0.0515125 0.00745625 -0.0641 0.030334375 -0.182609375 0.33143125 -0.348375 0.671865625 -0.49666875 1.020003125 -1.485121875 -0.225440625 -2.9957625 -0.225440625 -4.480884375 0 -0.149275 -0.349021875 -0.3177 -0.689540625 -0.5045 -1.020003125 -0.0131125 -0.02233125 -0.038553125 -0.0343625 -0.064134375 -0.030334375 -1.377878125 0.237565625 -2.719 0.65335625 -3.9896125 1.23690625 -0.010878125 0.004609375 -0.02005625 0.012484375 -0.02626875 0.02253125C0.635596875 7.5884 -0.060471875 11.2897125 0.280996875 14.945190625c0.001940625 0.018103125 0.011140625 0.034640625 0.0255 0.045834375 1.479584375 1.095521875 3.134521875 1.931740625 4.894184375 2.472975 0.025378125 0.0076125 0.0528125 -0.001375 0.068765625 -0.022534375 0.3779375 -0.514240625 0.71281875 -1.058778125 1.0012375 -1.628071875 0.016803125 -0.033125 0.000909375 -0.073490625 -0.03396875 -0.086265625 -0.52808125 -0.20205625 -1.039328125 -0.44563125 -1.5289375 -0.7284375 -0.038534375 -0.02265 -0.041759375 -0.077159375 -0.006165625 -0.1042 0.10273125 -0.076965625 0.205534375 -0.15703125 0.303634375 -0.2379 0.017775 -0.014640625 0.0423125 -0.017946875 0.06333125 -0.008534375 3.207646875 1.46390625 6.680359375 1.46390625 9.850034375 0 0.021084375 -0.010021875 0.046053125 -0.006996875 0.064134375 0.00776875 0.098134375 0.080865625 0.2009 0.1617 0.3044 0.238665625 0.035784375 0.0267625 0.032959375 0.08128125 -0.0054 0.1042 -0.488496875 0.2851875 -1.00020625 0.52860625 -1.529671875 0.727671875 -0.034846875 0.013259375 -0.05040625 0.0538875 -0.03333125 0.08703125 0.293246875 0.566128125 0.627634375 1.10998125 1.00046875 1.627175 0.01551875 0.02175625 0.0432125 0.031153125 0.06876875 0.02333125 1.7628125 -0.539396875 3.420640625 -1.375696875 4.902084375 -2.472875 0.014590625 -0.01065 0.023884375 -0.027071875 0.0255 -0.045065625 0.4088 -4.226115625 -0.684403125 -7.89709375 -2.8978125 -11.15140625ZM6.74971875 12.719384375c-0.9657375 0 -1.761471875 -0.8862375 -1.761471875 -1.974640625s0.780303125 -1.97470625 1.761471875 -1.97470625c0.9888375 0 1.776871875 0.894003125 1.761440625 1.974640625 0 1.08846875 -0.7803375 1.97470625 -1.761440625 1.97470625Zm6.512690625 0c-0.965703125 0 -1.761440625 -0.8862375 -1.761440625 -1.974640625s0.780303125 -1.97470625 1.761440625 -1.97470625c0.988903125 0 1.77690625 0.894003125 1.761471875 1.974640625 0 1.08846875 -0.77256875 1.97470625 -1.761471875 1.97470625Z" fill="#d3d3d3" stroke-width="0.0313"></path></svg>