<svg xmlns="http://www.w3.org/2000/svg" viewBox="0 0 18 18" id="Download--Streamline-Font-Awesome" height="18" width="18"><desc>Download Streamline Icon: https://streamlinehq.com</desc><!--! Font Awesome Free 6.5.2 by @fontawesome - https://fontawesome.com License - https://fontawesome.com/license/free (Icons: CC BY 4.0, Fonts: SIL OFL 1.1, Code: MIT License) Copyright 2024 Fonticons, Inc.--><path d="M10.125 1.125c0 -0.6222656249999999 -0.5027343750000001 -1.125 -1.125 -1.125s-1.125 0.5027343750000001 -1.125 1.125v8.532421874999999l-2.58046875 -2.58046875c-0.439453125 -0.439453125 -1.153125 -0.439453125 -1.592578125 0s-0.439453125 1.153125 0 1.592578125l4.5 4.5c0.439453125 0.439453125 1.153125 0.439453125 1.592578125 0l4.5 -4.5c0.439453125 -0.439453125 0.439453125 -1.153125 0 -1.592578125s-1.153125 -0.439453125 -1.592578125 0L10.125 9.657421874999999V1.125zM2.25 12.375c-1.241015625 0 -2.25 1.008984375 -2.25 2.25v1.125c0 1.241015625 1.008984375 2.25 2.25 2.25h13.5c1.241015625 0 2.25 -1.008984375 2.25 -2.25v-1.125c0 -1.241015625 -1.008984375 -2.25 -2.25 -2.25H12.181640625l-1.592578125 1.592578125c-0.87890625 0.87890625 -2.302734375 0.87890625 -3.181640625 0L5.818359375 12.375H2.25zm12.9375 1.96875a0.84375 0.84375 0 1 1 0 1.6875 0.84375 0.84375 0 1 1 0 -1.6875z" fill="#d3d3d3" stroke-width="0.0352"></path></svg>