<svg xmlns="http://www.w3.org/2000/svg" viewBox="0 0 20 20" id="Github--Streamline-Font-Awesome" height="20" width="20"><desc>Github Streamline Icon: https://streamlinehq.com</desc><!--! Font Awesome Free 6.5.2 by @fontawesome - https://fontawesome.com License - https://fontawesome.com/license/free (Icons: CC BY 4.0, Fonts: SIL OFL 1.1, Code: MIT License) Copyright 2024 Fonticons, Inc.--><path d="M6.755725806451613 15.832435483870968c0 0.07903225806451612 -0.09088709677419354 0.14225806451612902 -0.20548387096774193 0.14225806451612902 -0.1304032258064516 0.011854838709677419 -0.22129032258064518 -0.05137096774193548 -0.22129032258064518 -0.14225806451612902 0 -0.07903225806451612 0.09088709677419354 -0.14225806451612902 0.20548387096774193 -0.14225806451612902 0.11854838709677419 -0.011854838709677419 0.22129032258064518 0.05137096774193548 0.22129032258064518 0.14225806451612902Zm-1.2289516129032259 -0.1778225806451613c-0.027661290322580648 0.07903225806451612 0.05137096774193548 0.16991935483870968 0.16991935483870968 0.1936290322580645 0.10274193548387096 0.03951612903225806 0.22129032258064518 0 0.24499999999999997 -0.07903225806451612s-0.05137096774193548 -0.16991935483870968 -0.16991935483870968 -0.20548387096774193c-0.10274193548387096 -0.027661290322580648 -0.21733870967741933 0.011854838709677419 -0.24499999999999997 0.09088709677419354Zm1.7466129032258064 -0.0671774193548387c-0.11459677419354838 0.027661290322580648 -0.1936290322580645 0.10274193548387096 -0.1817741935483871 0.1936290322580645 0.011854838709677419 0.07903225806451612 0.11459677419354838 0.1304032258064516 0.2331451612903226 0.10274193548387096 0.11459677419354838 -0.027661290322580648 0.1936290322580645 -0.10274193548387096 0.1817741935483871 -0.1817741935483871 -0.011854838709677419 -0.07508064516129033 -0.11854838709677419 -0.12645161290322582 -0.2331451612903226 -0.11459677419354838Zm2.60016129032258 -15.14258064516129c-5.480887096774193 0 -9.673548387096774 4.161048387096774 -9.673548387096774 9.641935483870968 0 4.382338709677419 2.7582258064516125 8.13241935483871 6.697983870967742 9.452258064516128 0.5058064516129033 0.09088709677419354 0.6836290322580645 -0.22129032258064518 0.6836290322580645 -0.4781451612903226 0 -0.24499999999999997 -0.011854838709677419 -1.5964516129032258 -0.011854838709677419 -2.426290322580645 0 0 -2.766129032258064 0.5927419354838709 -3.347016129032258 -1.1775806451612902 0 0 -0.45048387096774195 -1.1499193548387097 -1.098548387096774 -1.4462903225806452 0 0 -0.9049193548387097 -0.6204032258064516 0.06322580645161291 -0.6085483870967742 0 0 0.9839516129032259 0.07903225806451612 1.5253225806451614 1.019516129032258 0.8654032258064516 1.5253225806451614 2.3156451612903224 1.0866935483870968 2.8807258064516126 0.8258870967741935 0.09088709677419354 -0.632258064516129 0.347741935483871 -1.0708870967741935 0.632258064516129 -1.3316935483870969 -2.2089516129032254 -0.24499999999999997 -4.4376612903225805 -0.5650806451612903 -4.4376612903225805 -4.366532258064516 0 -1.0866935483870968 0.3003225806451613 -1.632016129032258 0.9325806451612904 -2.3275 -0.10274193548387096 -0.2568548387096774 -0.4386290322580645 -1.3158870967741936 0.10274193548387096 -2.6831451612903225 0.8258870967741935 -0.2568548387096774 2.7266129032258064 1.0669354838709677 2.7266129032258064 1.0669354838709677 0.7903225806451614 -0.22129032258064518 1.6399193548387097 -0.33588709677419354 2.4816129032258063 -0.33588709677419354s1.6912903225806453 0.11459677419354838 2.4816129032258063 0.33588709677419354c0 0 1.9007258064516128 -1.3277419354838709 2.7266129032258064 -1.0669354838709677 0.5413709677419355 1.3712096774193547 0.20548387096774193 2.426290322580645 0.10274193548387096 2.6831451612903225 0.632258064516129 0.6994354838709678 1.019516129032258 1.2447580645161291 1.019516129032258 2.3275 0 3.813306451612903 -2.3275 4.11758064516129 -4.5364516129032255 4.366532258064516 0.3635483870967742 0.3121774193548387 0.6717741935483871 0.9049193548387097 0.6717741935483871 1.8335483870967741 0 1.3316935483870969 -0.011854838709677419 2.9795161290322576 -0.011854838709677419 3.303548387096774 0 0.2568548387096774 0.1817741935483871 0.5690322580645161 0.6836290322580645 0.4781451612903226 3.9516129032258065 -1.3119354838709678 6.630806451612902 -5.062016129032258 6.630806451612902 -9.444354838709677 0 -5.480887096774193 -4.445564516129032 -9.641935483870968 -9.926451612903225 -9.641935483870968Zm-5.83258064516129 13.629112903225806c-0.05137096774193548 0.03951612903225806 -0.03951612903225806 0.1304032258064516 0.027661290322580648 0.20548387096774193 0.06322580645161291 0.06322580645161291 0.15411290322580645 0.09088709677419354 0.20548387096774193 0.03951612903225806 0.05137096774193548 -0.03951612903225806 0.03951612903225806 -0.1304032258064516 -0.027661290322580648 -0.20548387096774193 -0.06322580645161291 -0.06322580645161291 -0.15411290322580645 -0.09088709677419354 -0.20548387096774193 -0.03951612903225806Zm-0.4267741935483871 -0.3200806451612903c-0.027661290322580648 0.05137096774193548 0.011854838709677419 0.11459677419354838 0.09088709677419354 0.15411290322580645 0.06322580645161291 0.03951612903225806 0.14225806451612902 0.027661290322580648 0.16991935483870968 -0.027661290322580648 0.027661290322580648 -0.05137096774193548 -0.011854838709677419 -0.11459677419354838 -0.09088709677419354 -0.15411290322580645 -0.07903225806451612 -0.023709677419354837 -0.14225806451612902 -0.011854838709677419 -0.16991935483870968 0.027661290322580648Zm1.2803225806451612 1.406774193548387c-0.06322580645161291 0.05137096774193548 -0.03951612903225806 0.16991935483870968 0.05137096774193548 0.24499999999999997 0.09088709677419354 0.09088709677419354 0.20548387096774193 0.10274193548387096 0.2568548387096774 0.03951612903225806 0.05137096774193548 -0.05137096774193548 0.027661290322580648 -0.16991935483870968 -0.05137096774193548 -0.24499999999999997 -0.08693548387096775 -0.09088709677419354 -0.20548387096774193 -0.10274193548387096 -0.2568548387096774 -0.03951612903225806Zm-0.45048387096774195 -0.5808870967741936c-0.06322580645161291 0.03951612903225806 -0.06322580645161291 0.14225806451612902 0 0.2331451612903226s0.16991935483870968 0.1304032258064516 0.22129032258064518 0.09088709677419354c0.06322580645161291 -0.05137096774193548 0.06322580645161291 -0.15411290322580645 0 -0.24499999999999997 -0.055322580645161296 -0.09088709677419354 -0.15806451612903225 -0.1304032258064516 -0.22129032258064518 -0.07903225806451612Z" fill="#d3d3d3" stroke-width="0.0403"></path></svg>